<svg width="294" height="327" viewBox="0 0 294 327" fill="none" xmlns="http://www.w3.org/2000/svg">
<path d="M283.263 193.988C283.263 268.279 225.323 316.366 156.291 316.366C87.4837 316.366 31.6052 268.488 31.6052 193.988C31.6052 155.861 46.1451 109.201 69.727 72.1445C93.5739 34.6715 124.623 10 156.291 10C188.016 10 219.639 34.7417 244.055 72.2329C268.204 109.314 283.263 155.944 283.263 193.988Z" fill="#FDFCFF" stroke="#8363D7" stroke-width="20"/>
<path d="M262.701 262.791C262.701 291.234 218.137 318.82 189.693 318.82C163.282 324.669 137.814 327.644 137.814 299.201C137.814 276.562 162.15 265.432 197.428 261.47C209.69 240.907 262.701 234.347 262.701 262.791Z" fill="#6546B6"/>
<path d="M159.49 158.912C153.305 188.311 144.436 206.026 111.262 199.047C82.7776 193.054 59.4738 172.482 65.6586 143.083C71.8434 113.684 89.0828 89.6301 119.067 91.1893C147.551 97.1817 165.675 129.513 159.49 158.912Z" fill="#8363D7"/>
<path d="M241.617 143.524C233.365 146.267 227.328 145.685 222.11 129.982C217.629 116.5 217.679 102.576 225.93 99.8338C234.181 97.0917 243.455 100.14 249.297 113.455C253.778 126.937 249.868 140.782 241.617 143.524Z" fill="#8363D7"/>
<path d="M262.607 148.177C260.789 150.648 259.208 151.915 256.368 149.826C253.929 148.032 252.592 145.104 254.409 142.633C256.227 140.161 258.865 138.667 261.631 140.112C264.07 141.906 264.425 145.705 262.607 148.177Z" fill="#8363D7"/>
<path d="M29.8193 206.156C21.7947 185.633 41.717 189.275 53.2894 201.102C80.2404 228.645 84.7933 256.898 78.5787 262.979C61.2219 296.182 64.3766 285.781 53.2895 276.374C43.353 266.219 23.6046 212.237 29.8193 206.156Z" fill="#6546B6"/>
<path d="M240.866 64.1414C213.323 80.1767 203.753 40.926 178.615 51.5017C172.337 54.1428 155.5 47.5401 151.209 30.9388C147.396 16.1892 154.227 11.3191 167.621 7.73468C188.354 7.73468 243.507 47.1628 240.866 64.1414Z" fill="#A588F1"/>
<path d="M283.263 193.988C283.263 268.279 225.323 316.366 156.291 316.366C87.4837 316.366 31.6052 268.488 31.6052 193.988C31.6052 155.861 46.1451 109.201 69.727 72.1445C93.5739 34.6715 124.623 10 156.291 10C188.016 10 219.639 34.7417 244.055 72.2329C268.204 109.314 283.263 155.944 283.263 193.988Z" stroke="#8363D7" stroke-width="20"/>
</svg>
