<svg width="175" height="91" viewBox="0 0 175 91" fill="none" xmlns="http://www.w3.org/2000/svg">
<rect x="12.0993" y="1" width="161.172" height="78.7128" rx="19.5" stroke="white" stroke-width="2"/>
<path d="M157.013 34.0259C66.013 7.12169 81.9815 82.9735 35.697 77.5475C17.6219 75.4286 -2.52136 67.1806 4.31763 40.3564C13.7314 15.826 42.7573 23.739 35.697 11.0782C32.6932 5.69161 157.013 18.1999 157.013 34.0259Z" fill="#B786F4"/>
<path d="M58.8608 40.4545C58.669 38.8352 57.8913 37.5781 56.5277 36.6832C55.1641 35.7884 53.4915 35.3409 51.5099 35.3409C50.0611 35.3409 48.7933 35.5753 47.7067 36.044C46.6307 36.5128 45.7891 37.1573 45.1818 37.9776C44.5852 38.7979 44.2869 39.7301 44.2869 40.7741C44.2869 41.6477 44.4947 42.3988 44.9102 43.0273C45.3363 43.6452 45.8796 44.1619 46.5401 44.5774C47.2006 44.9822 47.8931 45.3178 48.6175 45.5842C49.342 45.8398 50.0078 46.0476 50.6151 46.2074L53.9389 47.1023C54.7912 47.326 55.7393 47.6349 56.7834 48.0291C57.8381 48.4233 58.8448 48.9613 59.8036 49.6431C60.7731 50.3143 61.5721 51.1772 62.2006 52.2319C62.8292 53.2866 63.1435 54.581 63.1435 56.1151C63.1435 57.8835 62.68 59.4815 61.7532 60.9091C60.837 62.3366 59.4947 63.4712 57.7262 64.3129C55.9684 65.1545 53.8324 65.5753 51.3182 65.5753C48.9744 65.5753 46.945 65.1971 45.2298 64.4407C43.5252 63.6843 42.1829 62.6296 41.2028 61.2766C40.2333 59.9237 39.6847 58.3523 39.5568 56.5625H43.6477C43.7543 57.7983 44.1697 58.821 44.8942 59.6307C45.6293 60.4297 46.5561 61.0263 47.6747 61.4205C48.804 61.804 50.0185 61.9957 51.3182 61.9957C52.831 61.9957 54.1893 61.7507 55.3931 61.2607C56.5969 60.7599 57.5504 60.0675 58.2536 59.1832C58.9567 58.2884 59.3082 57.2443 59.3082 56.0511C59.3082 54.9645 59.0046 54.0803 58.3974 53.3984C57.7901 52.7166 56.9911 52.1626 56.0004 51.7365C55.0096 51.3104 53.9389 50.9375 52.7884 50.6179L48.7614 49.4673C46.2045 48.7322 44.1804 47.6829 42.6889 46.3192C41.1974 44.9556 40.4517 43.1712 40.4517 40.9659C40.4517 39.1335 40.9471 37.5355 41.9379 36.1719C42.9393 34.7976 44.2816 33.7322 45.9648 32.9759C47.6587 32.2088 49.5497 31.8253 51.6378 31.8253C53.7472 31.8253 55.6222 32.2035 57.2628 32.9599C58.9034 33.7056 60.2031 34.7283 61.1619 36.0281C62.1314 37.3278 62.6428 38.8033 62.696 40.4545H58.8608Z" fill="white"/>
<path d="M79.6054 65.4048C77.5093 65.4048 75.6965 64.9595 74.1672 64.0689C72.6468 63.1693 71.4728 61.9188 70.6452 60.3175C69.8175 58.7071 69.4037 56.8404 69.4037 54.7173C69.4037 52.5762 69.8175 50.705 70.6452 49.1037C71.4728 47.4934 72.6468 46.2429 74.1672 45.3523C75.6965 44.4527 77.5093 44.0028 79.6054 44.0028C81.7015 44.0028 83.5097 44.4527 85.0301 45.3523C86.5595 46.2429 87.738 47.4934 88.5656 49.1037C89.3933 50.705 89.8071 52.5762 89.8071 54.7173C89.8071 56.8404 89.3933 58.7071 88.5656 60.3175C87.738 61.9188 86.5595 63.1693 85.0301 64.0689C83.5097 64.9595 81.7015 65.4048 79.6054 65.4048ZM79.6324 60.9517C80.586 60.9517 81.3821 60.6818 82.0209 60.142C82.6596 59.5933 83.1409 58.8466 83.4648 57.902C83.7976 56.9574 83.964 55.8823 83.964 54.6768C83.964 53.4714 83.7976 52.3963 83.4648 51.4517C83.1409 50.5071 82.6596 49.7604 82.0209 49.2116C81.3821 48.6629 80.586 48.3885 79.6324 48.3885C78.6698 48.3885 77.8601 48.6629 77.2034 49.2116C76.5557 49.7604 76.0654 50.5071 75.7325 51.4517C75.4086 52.3963 75.2467 53.4714 75.2467 54.6768C75.2467 55.8823 75.4086 56.9574 75.7325 57.902C76.0654 58.8466 76.5557 59.5933 77.2034 60.142C77.8601 60.6818 78.6698 60.9517 79.6324 60.9517ZM101.356 65.3913C100.033 65.3913 98.8546 65.1619 97.82 64.7031C96.7854 64.2353 95.9668 63.5471 95.364 62.6385C94.7703 61.7209 94.4734 60.5784 94.4734 59.2109C94.4734 58.0594 94.6848 57.0923 95.1077 56.3097C95.5305 55.527 96.1062 54.8973 96.8349 54.4205C97.5636 53.9437 98.3913 53.5838 99.3179 53.3409C100.253 53.098 101.234 52.9271 102.26 52.8281C103.465 52.7022 104.437 52.5852 105.174 52.4773C105.912 52.3603 106.447 52.1894 106.78 51.9645C107.113 51.7396 107.28 51.4067 107.28 50.9659V50.8849C107.28 50.0303 107.01 49.3691 106.47 48.9013C105.939 48.4335 105.183 48.1996 104.203 48.1996C103.168 48.1996 102.345 48.429 101.733 48.8878C101.122 49.3376 100.717 49.9044 100.519 50.5881L95.2021 50.1562C95.472 48.8968 96.0028 47.8082 96.7944 46.8906C97.5861 45.964 98.6072 45.2533 99.8577 44.7585C101.117 44.2547 102.575 44.0028 104.23 44.0028C105.381 44.0028 106.483 44.1378 107.536 44.4077C108.597 44.6776 109.538 45.0959 110.356 45.6626C111.184 46.2294 111.836 46.9581 112.313 47.8487C112.79 48.7303 113.028 49.7874 113.028 51.0199V65H107.576V62.1257H107.414C107.082 62.7734 106.636 63.3447 106.079 63.8395C105.521 64.3253 104.851 64.7076 104.068 64.9865C103.285 65.2564 102.381 65.3913 101.356 65.3913ZM103.002 61.424C103.847 61.424 104.594 61.2576 105.242 60.9247C105.89 60.5829 106.398 60.1241 106.767 59.5483C107.136 58.9725 107.32 58.3203 107.32 57.5916V55.392C107.14 55.509 106.893 55.617 106.578 55.7159C106.272 55.8059 105.926 55.8913 105.539 55.9723C105.152 56.0443 104.765 56.1117 104.378 56.1747C103.991 56.2287 103.641 56.2782 103.326 56.3232C102.651 56.4221 102.062 56.5795 101.558 56.7955C101.054 57.0114 100.663 57.3037 100.384 57.6726C100.105 58.0324 99.9656 58.4822 99.9656 59.022C99.9656 59.8047 100.249 60.4029 100.816 60.8168C101.392 61.2216 102.12 61.424 103.002 61.424ZM119.388 65V44.2727H124.961V47.8892H125.177C125.555 46.6027 126.189 45.6312 127.08 44.9744C127.97 44.3087 128.996 43.9759 130.156 43.9759C130.444 43.9759 130.755 43.9938 131.088 44.0298C131.42 44.0658 131.713 44.1153 131.965 44.1783V49.2791C131.695 49.1982 131.321 49.1262 130.845 49.0632C130.368 49.0002 129.932 48.9688 129.536 48.9688C128.69 48.9688 127.934 49.1532 127.269 49.522C126.612 49.8819 126.09 50.3857 125.703 51.0334C125.325 51.6811 125.137 52.4278 125.137 53.2734V65H119.388Z" fill="#474747"/>
<path d="M58.8608 40.4545L56.8747 40.6897L57.0837 42.4545H58.8608V40.4545ZM56.5277 36.6832L55.4304 38.3553L55.4304 38.3553L56.5277 36.6832ZM47.7067 36.044L46.9145 34.2076L46.9079 34.2105L47.7067 36.044ZM45.1818 37.9776L43.5743 36.7877L43.5693 36.7945L43.5643 36.8013L45.1818 37.9776ZM44.9102 43.0273L43.2417 44.1302L43.2526 44.1466L43.2637 44.1628L44.9102 43.0273ZM46.5401 44.5774L45.4752 46.2703L45.4851 46.2765L45.495 46.2826L46.5401 44.5774ZM48.6175 45.5842L47.9274 47.4613L47.9396 47.4658L47.9519 47.4701L48.6175 45.5842ZM50.6151 46.2074L51.135 44.2761L51.124 44.2732L50.6151 46.2074ZM53.9389 47.1023L53.419 49.0335L53.4311 49.0367L53.9389 47.1023ZM56.7834 48.0291L56.0769 49.9002L56.0832 49.9026L56.7834 48.0291ZM59.8036 49.6431L58.6446 51.273L58.6548 51.2803L58.6652 51.2875L59.8036 49.6431ZM62.2006 52.2319L63.9187 51.208L63.9187 51.208L62.2006 52.2319ZM61.7532 60.9091L60.0757 59.82L60.07 59.8288L61.7532 60.9091ZM57.7262 64.3129L56.8668 62.5069L56.8625 62.509L57.7262 64.3129ZM45.2298 64.4407L44.4185 66.2688L44.4228 66.2707L45.2298 64.4407ZM41.2028 61.2766L39.577 62.4415L39.5831 62.4499L41.2028 61.2766ZM39.5568 56.5625V54.5625H37.4089L37.5619 56.705L39.5568 56.5625ZM43.6477 56.5625L45.6403 56.3907L45.4827 54.5625H43.6477V56.5625ZM44.8942 59.6307L43.4037 60.9643L43.4129 60.9746L43.4223 60.9848L44.8942 59.6307ZM47.6747 61.4205L47.01 63.3068L47.0208 63.3106L47.0316 63.3142L47.6747 61.4205ZM55.3931 61.2607L56.1472 63.1131L56.1542 63.1102L56.1612 63.1073L55.3931 61.2607ZM58.2536 59.1832L59.819 60.428L59.8262 60.4189L58.2536 59.1832ZM58.3974 53.3984L59.8909 52.0683L59.8909 52.0683L58.3974 53.3984ZM56.0004 51.7365L55.2101 53.5738L55.2101 53.5738L56.0004 51.7365ZM52.7884 50.6179L52.2389 52.5409L52.246 52.543L52.2531 52.5449L52.7884 50.6179ZM48.7614 49.4673L48.2087 51.3895L48.2119 51.3904L48.7614 49.4673ZM42.6889 46.3192L41.3394 47.7953L41.3394 47.7953L42.6889 46.3192ZM41.9379 36.1719L40.3215 34.994L40.3198 34.9963L41.9379 36.1719ZM45.9648 32.9759L46.7846 34.8001L46.7899 34.7978L45.9648 32.9759ZM57.2628 32.9599L56.4254 34.7762L56.4352 34.7806L57.2628 32.9599ZM61.1619 36.0281L59.5525 37.2154L59.5588 37.2238L61.1619 36.0281ZM62.696 40.4545V42.4545H64.7616L64.695 40.3901L62.696 40.4545ZM60.8469 40.2193C60.5857 38.0131 59.4825 36.2301 57.625 35.0111L55.4304 38.3553C56.3002 38.9262 56.7524 39.6573 56.8747 40.6897L60.8469 40.2193ZM57.625 35.0111C55.8712 33.8602 53.7968 33.3409 51.5099 33.3409V37.3409C53.1861 37.3409 54.4569 37.7165 55.4304 38.3553L57.625 35.0111ZM51.5099 33.3409C49.8482 33.3409 48.3007 33.6096 46.9145 34.2076L48.4989 37.8805C49.2859 37.5409 50.274 37.3409 51.5099 37.3409V33.3409ZM46.9079 34.2105C45.5594 34.7979 44.4197 35.6457 43.5743 36.7877L46.7893 39.1676C47.1585 38.6689 47.7019 38.2277 48.5055 37.8776L46.9079 34.2105ZM43.5643 36.8013C42.7115 37.974 42.2869 39.3207 42.2869 40.7741H46.2869C46.2869 40.1395 46.459 39.6219 46.7993 39.154L43.5643 36.8013ZM42.2869 40.7741C42.2869 41.9758 42.5772 43.1249 43.2417 44.1302L46.5786 41.9245C46.4122 41.6727 46.2869 41.3196 46.2869 40.7741H42.2869ZM43.2637 44.1628C43.85 45.0129 44.5944 45.7162 45.4752 46.2703L47.605 42.8845C47.1649 42.6076 46.8226 42.2776 46.5566 41.8919L43.2637 44.1628ZM45.495 46.2826C46.2675 46.7561 47.0788 47.1493 47.9274 47.4613L49.3077 43.707C48.7074 43.4863 48.1338 43.2084 47.5853 42.8722L45.495 46.2826ZM47.9519 47.4701C48.717 47.7402 49.4359 47.9652 50.1061 48.1415L51.124 44.2732C50.5798 44.13 49.967 43.9395 49.2832 43.6982L47.9519 47.4701ZM50.0951 48.1386L53.419 49.0335L54.4589 45.171L51.135 44.2762L50.0951 48.1386ZM53.4311 49.0367C54.2012 49.2389 55.0817 49.5245 56.077 49.9002L57.4898 46.158C56.3969 45.7454 55.3812 45.4131 54.4467 45.1678L53.4311 49.0367ZM56.0832 49.9026C56.9678 50.2332 57.8211 50.6874 58.6446 51.273L60.9627 48.0132C59.8685 47.2351 58.7083 46.6134 57.4836 46.1557L56.0832 49.9026ZM58.6652 51.2875C59.3895 51.7889 59.9944 52.4366 60.4826 53.2558L63.9187 51.208C63.1498 49.9178 62.1566 48.8396 60.942 47.9987L58.6652 51.2875ZM60.4826 53.2558C60.8858 53.9323 61.1435 54.8523 61.1435 56.1151H65.1435C65.1435 54.3096 64.7726 52.6409 63.9187 51.208L60.4826 53.2558ZM61.1435 56.1151C61.1435 57.5129 60.7836 58.7298 60.0757 59.82L63.4307 61.9982C64.5765 60.2333 65.1435 58.2542 65.1435 56.1151H61.1435ZM60.07 59.8288C59.3849 60.8963 58.3515 61.8004 56.8668 62.5069L58.5857 66.1188C60.6379 65.1421 62.2891 63.777 63.4364 61.9893L60.07 59.8288ZM56.8625 62.509C55.4407 63.1897 53.617 63.5753 51.3182 63.5753V67.5753C54.0477 67.5753 56.496 67.1193 58.5899 66.1168L56.8625 62.509ZM51.3182 63.5753C49.1849 63.5753 47.4425 63.2307 46.0368 62.6107L44.4228 66.2707C46.4474 67.1635 48.7639 67.5753 51.3182 67.5753V63.5753ZM46.041 62.6126C44.6206 61.9823 43.5722 61.1384 42.8224 60.1033L39.5831 62.4499C40.7935 64.1209 42.4298 65.3863 44.4185 66.2688L46.041 62.6126ZM42.8285 60.1117C42.0909 59.0824 41.6554 57.8713 41.5517 56.42L37.5619 56.705C37.7139 58.8333 38.3757 60.7649 39.577 62.4415L42.8285 60.1117ZM39.5568 58.5625H43.6477V54.5625H39.5568V58.5625ZM41.6551 56.7343C41.7933 58.3377 42.3505 59.7872 43.4037 60.9643L46.3847 58.2971C45.9889 57.8548 45.7152 57.2589 45.6403 56.3907L41.6551 56.7343ZM43.4223 60.9848C44.3989 62.0463 45.612 62.8141 47.01 63.3068L48.3394 59.5341C47.5002 59.2384 46.8596 58.8131 46.366 58.2766L43.4223 60.9848ZM47.0316 63.3142C48.3857 63.7741 49.8193 63.9957 51.3182 63.9957V59.9957C50.2176 59.9957 49.2222 59.8338 48.3179 59.5267L47.0316 63.3142ZM51.3182 63.9957C53.0477 63.9957 54.668 63.7152 56.1472 63.1131L54.639 59.4083C53.7106 59.7862 52.6142 59.9957 51.3182 59.9957V63.9957ZM56.1612 63.1073C57.6288 62.4968 58.8748 61.6154 59.819 60.428L56.6881 57.9385C56.2261 58.5195 55.5651 59.023 54.625 59.414L56.1612 63.1073ZM59.8262 60.4189C60.8203 59.1537 61.3082 57.6691 61.3082 56.0511H57.3082C57.3082 56.8195 57.0931 57.423 56.6809 57.9476L59.8262 60.4189ZM61.3082 56.0511C61.3082 54.5724 60.8844 53.1837 59.8909 52.0683L56.9038 54.7286C57.1249 54.9768 57.3082 55.3566 57.3082 56.0511H61.3082ZM59.8909 52.0683C59.057 51.1319 58.0018 50.4202 56.7906 49.8992L55.2101 53.5738C55.9804 53.9051 56.5233 54.3013 56.9038 54.7286L59.8909 52.0683ZM56.7906 49.8992C55.7087 49.4339 54.552 49.0321 53.3236 48.6909L52.2531 52.5449C53.3258 52.8429 54.3105 53.1868 55.2101 53.5738L56.7906 49.8992ZM53.3378 48.6948L49.3108 47.5443L48.2119 51.3904L52.2389 52.5409L53.3378 48.6948ZM49.314 47.5452C46.9636 46.8695 45.2419 45.9435 44.0385 44.8432L41.3394 47.7953C43.1188 49.4222 45.4455 50.595 48.2087 51.3895L49.314 47.5452ZM44.0385 44.8432C43.0018 43.8954 42.4517 42.6669 42.4517 40.9659H38.4517C38.4517 43.6754 39.3931 46.0158 41.3394 47.7953L44.0385 44.8432ZM42.4517 40.9659C42.4517 39.5171 42.8353 38.3393 43.5559 37.3475L40.3198 34.9963C39.0589 36.7317 38.4517 38.75 38.4517 40.9659H42.4517ZM43.5542 37.3497C44.3336 36.2802 45.3908 35.4265 46.7846 34.8001L45.1451 31.1516C43.1725 32.038 41.545 33.315 40.3215 34.994L43.5542 37.3497ZM46.7899 34.7978C48.1944 34.1617 49.7992 33.8253 51.6378 33.8253V29.8253C49.3003 29.8253 47.1231 30.2559 45.1398 31.1539L46.7899 34.7978ZM51.6378 33.8253C53.5061 33.8253 55.0878 34.1594 56.4254 34.7761L58.1002 31.1436C56.1565 30.2475 53.9882 29.8253 51.6378 29.8253V33.8253ZM56.4352 34.7806C57.8021 35.4019 58.8187 36.2206 59.5525 37.2153L62.7714 34.8408C61.5876 33.236 60.0047 32.0093 58.0904 31.1391L56.4352 34.7806ZM59.5588 37.2238C60.2789 38.1892 60.6567 39.2682 60.6971 40.519L64.695 40.3901C64.6288 38.3383 63.9839 36.4663 62.7651 34.8323L59.5588 37.2238ZM62.696 38.4545H58.8608V42.4545H62.696V38.4545ZM74.1672 64.0689L73.1487 65.7902L73.1607 65.7972L74.1672 64.0689ZM70.6452 60.3175L68.8663 61.2317L68.8684 61.2358L70.6452 60.3175ZM70.6452 49.1037L72.4219 50.022L72.424 50.0179L70.6452 49.1037ZM74.1672 45.3523L75.1781 47.078L75.1812 47.0761L74.1672 45.3523ZM85.0301 45.3523L84.0116 47.0736L84.0236 47.0806L85.0301 45.3523ZM88.5656 49.1037L86.7868 50.0179L86.7889 50.022L88.5656 49.1037ZM88.5656 60.3175L90.3423 61.2358L90.3444 61.2317L88.5656 60.3175ZM85.0301 64.0689L86.041 65.7946L86.0441 65.7928L85.0301 64.0689ZM82.0209 60.142L83.3118 61.6696L83.318 61.6644L83.3242 61.659L82.0209 60.142ZM83.4648 57.902L81.5784 57.2373L81.5756 57.2453L81.5729 57.2533L83.4648 57.902ZM83.4648 51.4517L81.5729 52.1004L81.5756 52.1084L81.5784 52.1164L83.4648 51.4517ZM82.0209 49.2116L80.7175 50.7287L82.0209 49.2116ZM77.2034 49.2116L75.9209 47.6769L75.9106 47.6857L77.2034 49.2116ZM75.7325 51.4517L73.8462 50.787L73.8434 50.795L73.8406 50.8031L75.7325 51.4517ZM75.7325 57.902L73.8406 58.5506L73.8434 58.5587L73.8462 58.5667L75.7325 57.902ZM77.2034 60.142L75.9106 61.668L75.9219 61.6777L75.9335 61.6871L77.2034 60.142ZM79.6054 63.4048C77.7973 63.4048 76.3453 63.0229 75.1736 62.3406L73.1607 65.7972C75.0477 66.8961 77.2212 67.4048 79.6054 67.4048V63.4048ZM75.1857 62.3476C73.9953 61.6433 73.0809 60.6742 72.4219 59.3992L68.8684 61.2358C69.8648 63.1634 71.2983 64.6953 73.1487 65.7901L75.1857 62.3476ZM72.424 59.4032C71.7648 58.1208 71.4037 56.5773 71.4037 54.7173H67.4037C67.4037 57.1036 67.8702 59.2935 68.8663 61.2317L72.424 59.4032ZM71.4037 54.7173C71.4037 52.836 71.7661 51.2908 72.4219 50.022L68.8684 48.1854C67.8689 50.1193 67.4037 52.3164 67.4037 54.7173H71.4037ZM72.424 50.0179C73.083 48.7357 73.995 47.771 75.1781 47.078L73.1563 43.6266C71.2986 44.7148 69.8626 46.251 68.8663 48.1894L72.424 50.0179ZM75.1812 47.0761C76.3515 46.3877 77.8007 46.0028 79.6054 46.0028V42.0028C77.2178 42.0028 75.0415 42.5176 73.1531 43.6284L75.1812 47.0761ZM79.6054 46.0028C81.4105 46.0028 82.8528 46.3878 84.0116 47.0735L86.0486 43.631C84.1667 42.5175 81.9925 42.0028 79.6054 42.0028V46.0028ZM84.0236 47.0806C85.2152 47.7745 86.1294 48.7388 86.7868 50.0179L90.3444 48.1894C89.3465 46.2479 87.9037 44.7113 86.0366 43.624L84.0236 47.0806ZM86.7889 50.022C87.4447 51.2908 87.8071 52.836 87.8071 54.7173H91.8071C91.8071 52.3164 91.3419 50.1193 90.3423 48.1854L86.7889 50.022ZM87.8071 54.7173C87.8071 56.5773 87.4459 58.1208 86.7868 59.4032L90.3444 61.2317C91.3406 59.2935 91.8071 57.1036 91.8071 54.7173H87.8071ZM86.7889 59.3992C86.1315 60.6711 85.2149 61.6398 84.0161 62.345L86.0441 65.7928C87.904 64.6987 89.3444 63.1665 90.3423 61.2358L86.7889 59.3992ZM84.0192 62.3432C82.859 63.0228 81.4139 63.4048 79.6054 63.4048V67.4048C81.9891 67.4048 84.1605 66.8962 86.041 65.7946L84.0192 62.3432ZM79.6324 62.9517C80.9882 62.9517 82.2618 62.557 83.3118 61.6696L80.7299 58.6145C80.5025 58.8067 80.1837 58.9517 79.6324 58.9517V62.9517ZM83.3242 61.659C84.2792 60.8385 84.9389 59.769 85.3566 58.5506L81.5729 57.2533C81.3428 57.9242 81.0399 58.348 80.7175 58.625L83.3242 61.659ZM85.3511 58.5667C85.7727 57.3701 85.964 56.064 85.964 54.6768H81.964C81.964 55.7007 81.8225 56.5447 81.5784 57.2373L85.3511 58.5667ZM85.964 54.6768C85.964 53.2897 85.7727 51.9836 85.3511 50.787L81.5784 52.1164C81.8225 52.809 81.964 53.653 81.964 54.6768H85.964ZM85.3566 50.8031C84.9389 49.5847 84.2792 48.5152 83.3242 47.6946L80.7175 50.7287C81.0399 51.0057 81.3428 51.4295 81.5729 52.1004L85.3566 50.8031ZM83.3242 47.6946C82.2747 46.7929 80.9967 46.3885 79.6324 46.3885V50.3885C80.1752 50.3885 80.4896 50.5328 80.7175 50.7287L83.3242 47.6946ZM79.6324 46.3885C78.2632 46.3885 76.9824 46.79 75.921 47.6769L78.4858 50.7464C78.7378 50.5358 79.0764 50.3885 79.6324 50.3885V46.3885ZM75.9106 47.6857C74.947 48.5021 74.2756 49.5683 73.8462 50.787L77.6188 52.1164C77.8551 51.4459 78.1644 51.0188 78.4962 50.7376L75.9106 47.6857ZM73.8406 50.8031C73.4321 51.9946 73.2467 53.2949 73.2467 54.6768H77.2467C77.2467 53.6478 77.3852 52.7981 77.6244 52.1004L73.8406 50.8031ZM73.2467 54.6768C73.2467 56.0588 73.4321 57.3591 73.8406 58.5506L77.6244 57.2533C77.3852 56.5556 77.2467 55.7059 77.2467 54.6768H73.2467ZM73.8462 58.5667C74.2756 59.7853 74.947 60.8516 75.9106 61.668L78.4962 58.6161C78.1644 58.3349 77.8551 57.9078 77.6188 57.2373L73.8462 58.5667ZM75.9335 61.6871C76.9952 62.5598 78.2715 62.9517 79.6324 62.9517V58.9517C79.0681 58.9517 78.7251 58.8039 78.4733 58.597L75.9335 61.6871ZM97.82 64.7031L96.996 66.5255L97.0026 66.5285L97.0092 66.5314L97.82 64.7031ZM95.364 62.6385L93.6849 63.725L93.6911 63.7346L93.6974 63.7441L95.364 62.6385ZM95.1077 56.3097L93.348 55.359L93.348 55.359L95.1077 56.3097ZM96.8349 54.4205L95.7399 52.7469L95.7399 52.7469L96.8349 54.4205ZM99.3179 53.3409L98.8153 51.4051L98.8107 51.4063L99.3179 53.3409ZM102.26 52.8281L102.452 54.8189L102.46 54.8181L102.467 54.8173L102.26 52.8281ZM105.174 52.4773L105.464 54.4562L105.476 54.4545L105.488 54.4526L105.174 52.4773ZM106.78 51.9645L105.661 50.3073L105.661 50.3073L106.78 51.9645ZM106.47 48.9013L105.147 50.4017L105.154 50.4072L105.16 50.4127L106.47 48.9013ZM101.733 48.8878L102.918 50.4991L102.926 50.4935L102.933 50.4878L101.733 48.8878ZM100.519 50.5881L100.357 52.5815L101.986 52.7138L102.44 51.1442L100.519 50.5881ZM95.2021 50.1562L93.2465 49.7372L92.7691 51.9652L95.0402 52.1497L95.2021 50.1562ZM96.7944 46.8906L98.3088 48.1971L98.315 48.1898L96.7944 46.8906ZM99.8577 44.7585L100.594 46.6182L100.6 46.6155L99.8577 44.7585ZM107.536 44.4077L107.039 46.345L107.043 46.346L107.536 44.4077ZM110.356 45.6626L109.218 47.307L109.226 47.3128L110.356 45.6626ZM112.313 47.8487L110.55 48.7927L110.554 48.8001L112.313 47.8487ZM113.028 65V67H115.028V65H113.028ZM107.576 65H105.576V67H107.576V65ZM107.576 62.1257H109.576V60.1257H107.576V62.1257ZM107.414 62.1257V60.1257H106.194L105.636 61.2116L107.414 62.1257ZM106.079 63.8395L107.392 65.3477L107.399 65.3417L107.406 65.3356L106.079 63.8395ZM104.068 64.9865L104.72 66.8773L104.73 66.8739L104.739 66.8705L104.068 64.9865ZM105.242 60.9247L106.156 62.7036L106.166 62.6986L106.175 62.6935L105.242 60.9247ZM106.767 59.5483L105.083 58.4694L105.083 58.4694L106.767 59.5483ZM107.32 55.392H109.32V51.7067L106.23 53.7152L107.32 55.392ZM106.578 55.7159L107.142 57.6346L107.16 57.6294L107.177 57.6239L106.578 55.7159ZM105.539 55.9723L105.905 57.9386L105.927 57.9345L105.948 57.9299L105.539 55.9723ZM104.378 56.1747L104.655 58.1555L104.677 58.1524L104.7 58.1487L104.378 56.1747ZM103.326 56.3232L103.043 54.3432L103.035 54.3443L103.326 56.3232ZM101.558 56.7955L102.346 58.6337L102.346 58.6337L101.558 56.7955ZM100.384 57.6726L101.965 58.8977L101.972 58.8883L101.979 58.8788L100.384 57.6726ZM100.816 60.8168L99.6364 62.432L99.6508 62.4425L99.6654 62.4528L100.816 60.8168ZM101.356 63.3913C100.266 63.3913 99.3707 63.203 98.6308 62.8748L97.0092 66.5314C98.3385 67.1209 99.8004 67.3913 101.356 67.3913V63.3913ZM98.644 62.8808C97.9373 62.5612 97.4167 62.1148 97.0307 61.5329L93.6974 63.7441C94.5169 64.9794 95.6336 65.9095 96.996 66.5255L98.644 62.8808ZM97.0432 61.552C96.7058 61.0306 96.4734 60.2895 96.4734 59.2109H92.4734C92.4734 60.8672 92.8348 62.4111 93.6849 63.725L97.0432 61.552ZM96.4734 59.2109C96.4734 58.2964 96.6419 57.6775 96.8673 57.2603L93.348 55.359C92.7278 56.5072 92.4734 57.8224 92.4734 59.2109H96.4734ZM96.8673 57.2603C97.1357 56.7635 97.4856 56.3848 97.93 56.094L95.7399 52.7469C94.7268 53.4097 93.9253 54.2905 93.348 55.359L96.8673 57.2603ZM97.93 56.094C98.4609 55.7466 99.0864 55.4692 99.825 55.2755L98.8107 51.4063C97.6961 51.6985 96.6663 52.1407 95.7399 52.7469L97.93 56.094ZM99.8205 55.2767C100.648 55.062 101.524 54.9084 102.452 54.8189L102.068 50.8374C100.944 50.9458 99.8592 51.1341 98.8153 51.4051L99.8205 55.2767ZM102.467 54.8173C103.686 54.69 104.688 54.5698 105.464 54.4562L104.885 50.4984C104.186 50.6007 103.245 50.7143 102.052 50.839L102.467 54.8173ZM105.488 54.4526C106.308 54.3226 107.197 54.0969 107.9 53.6217L105.661 50.3073C105.701 50.2802 105.673 50.3074 105.521 50.3561C105.375 50.4027 105.16 50.4545 104.861 50.5019L105.488 54.4526ZM107.9 53.6217C108.843 52.9842 109.28 51.9949 109.28 50.9659H105.28C105.28 50.9328 105.287 50.8098 105.366 50.6517C105.449 50.4864 105.565 50.3716 105.661 50.3073L107.9 53.6217ZM109.28 50.9659V50.8849H105.28V50.9659H109.28ZM109.28 50.8849C109.28 49.5753 108.844 48.3124 107.78 47.3899L105.16 50.4127C105.192 50.4408 105.209 50.4642 105.225 50.5038C105.245 50.5523 105.28 50.6669 105.28 50.8849H109.28ZM107.792 47.4009C106.776 46.5054 105.482 46.1996 104.203 46.1996V50.1996C104.884 50.1996 105.102 50.3615 105.147 50.4017L107.792 47.4009ZM104.203 46.1996C102.886 46.1996 101.595 46.4914 100.533 47.2878L102.933 50.4878C103.095 50.3665 103.45 50.1996 104.203 50.1996V46.1996ZM100.549 47.2765C99.6072 47.9687 98.9266 48.8958 98.5977 50.032L102.44 51.1442C102.507 50.9129 102.636 50.7065 102.918 50.4991L100.549 47.2765ZM100.681 48.5946L95.364 48.1628L95.0402 52.1497L100.357 52.5815L100.681 48.5946ZM97.1577 50.5753C97.3619 49.6227 97.7501 48.8446 98.3088 48.1971L95.2801 45.5842C94.2555 46.7719 93.5822 48.1709 93.2465 49.7372L97.1577 50.5753ZM98.315 48.1898C98.8735 47.5361 99.6144 47.0056 100.594 46.6182L99.1218 42.8988C97.5999 43.501 96.2987 44.3919 95.2738 45.5915L98.315 48.1898ZM100.6 46.6155C101.578 46.2245 102.774 46.0028 104.23 46.0028V42.0028C102.375 42.0028 100.656 42.285 99.1149 42.9016L100.6 46.6155ZM104.23 46.0028C105.224 46.0028 106.158 46.1191 107.039 46.345L108.033 42.4703C106.808 42.1564 105.539 42.0028 104.23 42.0028V46.0028ZM107.043 46.346C107.897 46.563 108.614 46.8889 109.218 47.307L111.495 44.0183C110.461 43.3029 109.298 42.7921 108.029 42.4693L107.043 46.346ZM109.226 47.3128C109.787 47.697 110.223 48.1827 110.55 48.7927L114.076 46.9048C113.449 45.7335 112.58 44.7618 111.486 44.0125L109.226 47.3128ZM110.554 48.8001C110.84 49.3297 111.028 50.0442 111.028 51.0199H115.028C115.028 49.5306 114.739 48.131 114.072 46.8973L110.554 48.8001ZM111.028 51.0199V65H115.028V51.0199H111.028ZM113.028 63H107.576V67H113.028V63ZM109.576 65V62.1257H105.576V65H109.576ZM107.576 60.1257H107.414V64.1257H107.576V60.1257ZM105.636 61.2116C105.419 61.6337 105.128 62.0089 104.751 62.3433L107.406 65.3356C108.144 64.6805 108.745 63.9132 109.193 63.0398L105.636 61.2116ZM104.765 62.3313C104.418 62.6337 103.972 62.8973 103.397 63.1025L104.739 66.8705C105.729 66.5179 106.624 66.0168 107.392 65.3477L104.765 62.3313ZM103.416 63.0958C102.886 63.2784 102.21 63.3913 101.356 63.3913V67.3913C102.552 67.3913 103.684 67.2344 104.72 66.8773L103.416 63.0958ZM103.002 63.424C104.114 63.424 105.183 63.2035 106.156 62.7036L104.328 59.1459C104.005 59.3116 103.581 59.424 103.002 59.424V63.424ZM106.175 62.6935C107.106 62.2022 107.882 61.5145 108.451 60.6271L105.083 58.4694C104.913 58.7336 104.673 58.9635 104.308 59.1559L106.175 62.6935ZM108.451 60.6272C109.04 59.7079 109.32 58.6765 109.32 57.5916H105.32C105.32 57.9642 105.231 58.2371 105.083 58.4694L108.451 60.6272ZM109.32 57.5916V55.392H105.32V57.5916H109.32ZM106.23 53.7152C106.252 53.7007 106.247 53.707 106.2 53.7276C106.154 53.7477 106.082 53.7753 105.978 53.8079L107.177 57.6239C107.583 57.4964 108.019 57.3228 108.41 57.0689L106.23 53.7152ZM106.013 53.7972C105.769 53.8691 105.476 53.9422 105.129 54.0147L105.948 57.9299C106.376 57.8405 106.775 57.7426 107.142 57.6346L106.013 53.7972ZM105.173 54.006C104.801 54.0753 104.429 54.1402 104.057 54.2007L104.7 58.1487C105.101 58.0833 105.503 58.0133 105.905 57.9386L105.173 54.006ZM104.102 54.1939C103.713 54.2481 103.36 54.2979 103.043 54.3433L103.609 58.3031C103.921 58.2584 104.269 58.2093 104.655 58.1555L104.102 54.1939ZM103.035 54.3443C102.229 54.4626 101.466 54.6589 100.77 54.9572L102.346 58.6337C102.657 58.5002 103.073 58.3817 103.616 58.302L103.035 54.3443ZM100.77 54.9572C100.006 55.2845 99.313 55.7729 98.7886 56.4664L101.979 58.8788C102.013 58.8346 102.102 58.7382 102.346 58.6337L100.77 54.9572ZM98.8031 56.4474C98.2045 57.2198 97.9656 58.124 97.9656 59.022H101.966C101.966 58.9241 101.978 58.8795 101.981 58.872C101.982 58.8682 101.981 58.8707 101.978 58.8774C101.974 58.8842 101.97 58.8914 101.965 58.8977L98.8031 56.4474ZM97.9656 59.022C97.9656 60.3582 98.4889 61.5941 99.6364 62.432L101.995 59.2015C101.976 59.1872 101.972 59.1812 101.975 59.1854C101.979 59.1901 101.983 59.1967 101.986 59.2015C101.992 59.2145 101.966 59.1707 101.966 59.022H97.9656ZM99.6654 62.4528C100.655 63.1483 101.813 63.424 103.002 63.424V59.424C102.427 59.424 102.128 59.2948 101.966 59.1807L99.6654 62.4528ZM119.388 65H117.388V67H119.388V65ZM119.388 44.2727V42.2727H117.388V44.2727H119.388ZM124.961 44.2727H126.961V42.2727H124.961V44.2727ZM124.961 47.8892H122.961V49.8892H124.961V47.8892ZM125.177 47.8892V49.8892H126.674L127.096 48.4528L125.177 47.8892ZM127.08 44.9744L128.267 46.5842L128.277 46.5764L127.08 44.9744ZM131.088 44.0298L131.303 42.0414L131.303 42.0414L131.088 44.0298ZM131.965 44.1783H133.965V42.6167L132.45 42.238L131.965 44.1783ZM131.965 49.2791L131.39 51.1948L133.965 51.9672V49.2791H131.965ZM127.269 49.522L128.23 51.276L128.238 51.2714L127.269 49.522ZM125.703 51.0334L123.986 50.0079L123.981 50.0167L123.976 50.0256L125.703 51.0334ZM125.137 65V67H127.137V65H125.137ZM121.388 65V44.2727H117.388V65H121.388ZM119.388 46.2727H124.961V42.2727H119.388V46.2727ZM122.961 44.2727V47.8892H126.961V44.2727H122.961ZM124.961 49.8892H125.177V45.8892H124.961V49.8892ZM127.096 48.4528C127.377 47.4945 127.797 46.9303 128.267 46.5841L125.893 43.3647C124.581 44.332 123.732 45.711 123.258 47.3256L127.096 48.4528ZM128.277 46.5764C128.806 46.1809 129.407 45.9759 130.156 45.9759V41.9759C128.584 41.9759 127.135 42.4365 125.882 43.3725L128.277 46.5764ZM130.156 45.9759C130.362 45.9759 130.6 45.9888 130.873 46.0182L131.303 42.0414C130.909 41.9989 130.527 41.9759 130.156 41.9759V45.9759ZM130.873 46.0182C131.139 46.047 131.338 46.0831 131.48 46.1186L132.45 42.238C132.088 42.1475 131.702 42.0846 131.303 42.0414L130.873 46.0182ZM129.965 44.1783V49.2791H133.965V44.1783H129.965ZM132.539 47.3635C132.121 47.2378 131.626 47.1491 131.107 47.0804L130.583 51.046C131.017 51.1033 131.269 51.1585 131.39 51.1948L132.539 47.3635ZM131.107 47.0804C130.561 47.0083 130.035 46.9688 129.536 46.9688V50.9688C129.828 50.9688 130.175 50.9921 130.583 51.046L131.107 47.0804ZM129.536 46.9688C128.389 46.9688 127.294 47.2217 126.299 47.7726L128.238 51.2714C128.575 51.0846 128.991 50.9688 129.536 50.9688V46.9688ZM126.308 47.7681C125.336 48.3004 124.554 49.0568 123.986 50.0079L127.42 52.0589C127.626 51.7145 127.888 51.4633 128.23 51.276L126.308 47.7681ZM123.976 50.0256C123.398 51.0168 123.137 52.1198 123.137 53.2734H127.137C127.137 52.7357 127.253 52.3454 127.431 52.0411L123.976 50.0256ZM123.137 53.2734V65H127.137V53.2734H123.137ZM125.137 63H119.388V67H125.137V63Z" fill="white"/>
<path d="M49.3234 19.7826C49.3234 20.5496 48.7093 21.1565 47.97 21.1565C47.2306 21.1565 46.6165 20.5496 46.6165 19.7826C46.6165 19.0156 47.2306 18.4087 47.97 18.4087C48.7093 18.4087 49.3234 19.0156 49.3234 19.7826Z" fill="white" stroke="white" stroke-width="2"/>
</svg>
