<svg width="168" height="160" viewBox="0 0 168 160" fill="none" xmlns="http://www.w3.org/2000/svg">
<circle cx="80" cy="80" r="80" fill="white"/>
<path d="M151.522 70.8563C63.6615 43.952 79.0791 119.804 34.3914 114.378C16.9398 112.259 -2.50858 104.011 4.09449 77.1867C13.1835 52.6563 41.2081 60.5693 34.3914 47.9085C31.4912 42.5219 151.522 55.0302 151.522 70.8563Z" fill="#B786F4"/>
<path d="M57.5102 77.2849C57.3184 75.6655 56.5407 74.4084 55.1771 73.5136C53.8134 72.6187 52.1409 72.1712 50.1593 72.1712C48.7105 72.1712 47.4427 72.4056 46.3561 72.8744C45.2801 73.3431 44.4384 73.9876 43.8312 74.8079C43.2346 75.6283 42.9363 76.5604 42.9363 77.6045C42.9363 78.478 43.1441 79.2291 43.5595 79.8577C43.9857 80.4756 44.529 80.9923 45.1895 81.4077C45.85 81.8126 46.5425 82.1481 47.2669 82.4145C47.9914 82.6702 48.6572 82.8779 49.2644 83.0377L52.5883 83.9326C53.4406 84.1563 54.3887 84.4653 55.4328 84.8594C56.4875 85.2536 57.4942 85.7916 58.453 86.4734C59.4225 87.1446 60.2215 88.0075 60.85 89.0622C61.4786 90.1169 61.7929 91.4113 61.7929 92.9454C61.7929 94.7138 61.3294 96.3119 60.4026 97.7394C59.4864 99.167 58.1441 100.302 56.3756 101.143C54.6178 101.985 52.4818 102.406 49.9676 102.406C47.6238 102.406 45.5943 102.027 43.8791 101.271C42.1746 100.515 40.8323 99.4599 39.8522 98.107C38.8827 96.754 38.334 95.1826 38.2062 93.3928H42.2971C42.4036 94.6286 42.8191 95.6513 43.5436 96.461C44.2786 97.26 45.2055 97.8566 46.3241 98.2508C47.4534 98.6343 48.6678 98.8261 49.9676 98.8261C51.4803 98.8261 52.8387 98.581 54.0425 98.091C55.2463 97.5903 56.1998 96.8978 56.9029 96.0136C57.6061 95.1187 57.9576 94.0746 57.9576 92.8815C57.9576 91.7948 57.654 90.9106 57.0468 90.2288C56.4395 89.5469 55.6405 88.993 54.6497 88.5668C53.659 88.1407 52.5883 87.7678 51.4377 87.4482L47.4107 86.2977C44.8539 85.5626 42.8298 84.5132 41.3383 83.1496C39.8468 81.7859 39.1011 80.0015 39.1011 77.7962C39.1011 75.9638 39.5965 74.3658 40.5872 73.0022C41.5887 71.6279 42.931 70.5626 44.6142 69.8062C46.3081 69.0391 48.1991 68.6556 50.2872 68.6556C52.3965 68.6556 54.2715 69.0338 55.9122 69.7902C57.5528 70.5359 58.8525 71.5587 59.8113 72.8584C60.7808 74.1581 61.2921 75.6336 61.3454 77.2849H57.5102Z" fill="white"/>
<path d="M78.2548 102.235C76.1586 102.235 74.3459 101.79 72.8166 100.899C71.2962 99.9996 70.1222 98.7491 69.2945 97.1478C68.4669 95.5375 68.0531 93.6708 68.0531 91.5477C68.0531 89.4066 68.4669 87.5353 69.2945 85.934C70.1222 84.3237 71.2962 83.0732 72.8166 82.1826C74.3459 81.283 76.1586 80.8332 78.2548 80.8332C80.3509 80.8332 82.1591 81.283 83.6795 82.1826C85.2088 83.0732 86.3873 84.3237 87.215 85.934C88.0426 87.5353 88.4565 89.4066 88.4565 91.5477C88.4565 93.6708 88.0426 95.5375 87.215 97.1478C86.3873 98.7491 85.2088 99.9996 83.6795 100.899C82.1591 101.79 80.3509 102.235 78.2548 102.235ZM78.2818 97.782C79.2354 97.782 80.0315 97.5121 80.6702 96.9724C81.309 96.4236 81.7903 95.6769 82.1141 94.7323C82.447 93.7877 82.6134 92.7127 82.6134 91.5072C82.6134 90.3017 82.447 89.2266 82.1141 88.282C81.7903 87.3374 81.309 86.5907 80.6702 86.042C80.0315 85.4932 79.2354 85.2188 78.2818 85.2188C77.3192 85.2188 76.5095 85.4932 75.8528 86.042C75.205 86.5907 74.7148 87.3374 74.3819 88.282C74.058 89.2266 73.8961 90.3017 73.8961 91.5072C73.8961 92.7127 74.058 93.7877 74.3819 94.7323C74.7148 95.6769 75.205 96.4236 75.8528 96.9724C76.5095 97.5121 77.3192 97.782 78.2818 97.782ZM100.005 102.222C98.6825 102.222 97.504 101.992 96.4694 101.533C95.4348 101.066 94.6162 100.377 94.0134 99.4688C93.4197 98.5512 93.1228 97.4087 93.1228 96.0413C93.1228 94.8897 93.3342 93.9227 93.757 93.14C94.1799 92.3573 94.7556 91.7276 95.4843 91.2508C96.213 90.774 97.0407 90.4141 97.9673 90.1712C98.9029 89.9283 99.8835 89.7574 100.909 89.6584C102.115 89.5325 103.086 89.4155 103.824 89.3076C104.561 89.1906 105.097 89.0197 105.43 88.7948C105.762 88.5699 105.929 88.237 105.929 87.7962V87.7153C105.929 86.8606 105.659 86.1994 105.119 85.7316C104.588 85.2638 103.833 85.0299 102.852 85.0299C101.818 85.0299 100.994 85.2593 100.383 85.7181C99.771 86.1679 99.3662 86.7347 99.1683 87.4184L93.8515 86.9866C94.1214 85.7271 94.6522 84.6386 95.4438 83.7209C96.2355 82.7943 97.2566 82.0836 98.507 81.5888C99.7665 81.0851 101.224 80.8332 102.879 80.8332C104.031 80.8332 105.133 80.9681 106.185 81.238C107.247 81.5079 108.187 81.9262 109.006 82.493C109.833 83.0597 110.485 83.7884 110.962 84.679C111.439 85.5607 111.677 86.6177 111.677 87.8502V101.83H106.226V98.956H106.064C105.731 99.6038 105.286 100.175 104.728 100.67C104.17 101.156 103.5 101.538 102.717 101.817C101.935 102.087 101.03 102.222 100.005 102.222ZM101.651 98.2543C102.497 98.2543 103.244 98.0879 103.891 97.755C104.539 97.4132 105.047 96.9544 105.416 96.3786C105.785 95.8029 105.969 95.1506 105.969 94.4219V92.2224C105.789 92.3393 105.542 92.4473 105.227 92.5462C104.921 92.6362 104.575 92.7217 104.188 92.8026C103.801 92.8746 103.414 92.9421 103.028 93.005C102.641 93.059 102.29 93.1085 101.975 93.1535C101.3 93.2524 100.711 93.4099 100.207 93.6258C99.7035 93.8417 99.3122 94.1341 99.0333 94.5029C98.7544 94.8628 98.615 95.3126 98.615 95.8523C98.615 96.635 98.8984 97.2333 99.4651 97.6471C100.041 98.0519 100.77 98.2543 101.651 98.2543ZM118.037 101.83V81.103H123.611V84.7195H123.826C124.204 83.4331 124.839 82.4615 125.729 81.8048C126.62 81.139 127.645 80.8062 128.806 80.8062C129.094 80.8062 129.404 80.8242 129.737 80.8602C130.07 80.8961 130.362 80.9456 130.614 81.0086V86.1094C130.344 86.0285 129.971 85.9565 129.494 85.8935C129.017 85.8306 128.581 85.7991 128.185 85.7991C127.339 85.7991 126.584 85.9835 125.918 86.3523C125.261 86.7122 124.74 87.216 124.353 87.8637C123.975 88.5114 123.786 89.2581 123.786 90.1038V101.83H118.037Z" fill="#474747"/>
<path d="M57.5102 77.2849L55.5241 77.5201L55.733 79.2849H57.5102V77.2849ZM55.1771 73.5136L54.0798 75.1857L54.0798 75.1857L55.1771 73.5136ZM46.3561 72.8744L45.5639 71.0379L45.5573 71.0408L46.3561 72.8744ZM43.8312 74.8079L42.2237 73.618L42.2187 73.6248L42.2137 73.6316L43.8312 74.8079ZM43.5595 79.8577L41.8911 80.9605L41.9019 80.9769L41.9131 80.9931L43.5595 79.8577ZM45.1895 81.4077L44.1246 83.1007L44.1345 83.1069L44.1444 83.1129L45.1895 81.4077ZM47.2669 82.4145L46.5768 84.2916L46.589 84.2961L46.6013 84.3005L47.2669 82.4145ZM49.2644 83.0377L49.7844 81.1064L49.7734 81.1036L49.2644 83.0377ZM52.5883 83.9326L52.0683 85.8639L52.0805 85.8671L52.5883 83.9326ZM55.4328 84.8594L54.7263 86.7305L54.7326 86.7329L55.4328 84.8594ZM58.453 86.4734L57.294 88.1033L57.3042 88.1106L57.3146 88.1178L58.453 86.4734ZM60.85 89.0622L62.5681 88.0383L62.5681 88.0383L60.85 89.0622ZM60.4026 97.7394L58.7251 96.6503L58.7194 96.6592L60.4026 97.7394ZM56.3756 101.143L55.5161 99.3373L55.5119 99.3393L56.3756 101.143ZM43.8791 101.271L43.0679 103.099L43.0721 103.101L43.8791 101.271ZM39.8522 98.107L38.2264 99.2719L38.2325 99.2803L39.8522 98.107ZM38.2062 93.3928V91.3928H36.0582L36.2113 93.5353L38.2062 93.3928ZM42.2971 93.3928L44.2897 93.221L44.1321 91.3928H42.2971V93.3928ZM43.5436 96.461L42.0531 97.7946L42.0623 97.8049L42.0717 97.8151L43.5436 96.461ZM46.3241 98.2508L45.6594 100.137L45.6701 100.141L45.6809 100.145L46.3241 98.2508ZM54.0425 98.091L54.7966 99.9434L54.8036 99.9405L54.8106 99.9376L54.0425 98.091ZM56.9029 96.0136L58.4684 97.2584L58.4756 97.2492L56.9029 96.0136ZM57.0468 90.2288L58.5403 88.8986L58.5403 88.8986L57.0468 90.2288ZM54.6497 88.5668L53.8595 90.4041L53.8595 90.4041L54.6497 88.5668ZM51.4377 87.4482L50.8883 89.3713L50.8954 89.3733L50.9024 89.3753L51.4377 87.4482ZM47.4107 86.2977L46.8581 88.2198L46.8613 88.2207L47.4107 86.2977ZM41.3383 83.1496L39.9888 84.6256L39.9888 84.6256L41.3383 83.1496ZM40.5872 73.0022L38.9708 71.8244L38.9692 71.8266L40.5872 73.0022ZM44.6142 69.8062L45.434 71.6305L45.4392 71.6281L44.6142 69.8062ZM55.9122 69.7902L55.0748 71.6065L55.0846 71.6109L55.9122 69.7902ZM59.8113 72.8584L58.2018 74.0457L58.2082 74.0542L59.8113 72.8584ZM61.3454 77.2849V79.2849H63.411L63.3444 77.2204L61.3454 77.2849ZM59.4963 77.0497C59.235 74.8434 58.1319 73.0604 56.2744 71.8415L54.0798 75.1857C54.9496 75.7565 55.4018 76.4877 55.5241 77.5201L59.4963 77.0497ZM56.2744 71.8415C54.5206 70.6905 52.4462 70.1712 50.1593 70.1712V74.1712C51.8355 74.1712 53.1063 74.5468 54.0798 75.1857L56.2744 71.8415ZM50.1593 70.1712C48.4976 70.1712 46.9501 70.4399 45.5639 71.0379L47.1482 74.7108C47.9353 74.3713 48.9234 74.1712 50.1593 74.1712V70.1712ZM45.5573 71.0408C44.2088 71.6282 43.069 72.4761 42.2237 73.618L45.4387 75.9979C45.8078 75.4992 46.3513 75.058 47.1548 74.7079L45.5573 71.0408ZM42.2137 73.6316C41.3608 74.8043 40.9363 76.151 40.9363 77.6045H44.9363C44.9363 76.9699 45.1084 76.4522 45.4487 75.9843L42.2137 73.6316ZM40.9363 77.6045C40.9363 78.8062 41.2265 79.9552 41.8911 80.9605L45.228 78.7548C45.0616 78.5031 44.9363 78.1499 44.9363 77.6045H40.9363ZM41.9131 80.9931C42.4994 81.8432 43.2437 82.5466 44.1246 83.1007L46.2544 79.7148C45.8143 79.4379 45.472 79.1079 45.206 78.7222L41.9131 80.9931ZM44.1444 83.1129C44.9169 83.5864 45.7282 83.9797 46.5768 84.2916L47.9571 80.5373C47.3568 80.3166 46.7832 80.0387 46.2346 79.7025L44.1444 83.1129ZM46.6013 84.3005C47.3664 84.5705 48.0853 84.7955 48.7555 84.9719L49.7734 81.1036C49.2291 80.9603 48.6164 80.7698 47.9326 80.5285L46.6013 84.3005ZM48.7445 84.9689L52.0684 85.8638L53.1083 82.0014L49.7844 81.1065L48.7445 84.9689ZM52.0805 85.8671C52.8506 86.0692 53.7311 86.3548 54.7263 86.7305L56.1392 82.9884C55.0463 82.5757 54.0306 82.2434 53.0961 81.9981L52.0805 85.8671ZM54.7326 86.7329C55.6172 87.0635 56.4705 87.5178 57.294 88.1033L59.6121 84.8435C58.5179 84.0655 57.3577 83.4437 56.1329 82.986L54.7326 86.7329ZM57.3146 88.1178C58.0389 88.6193 58.6438 89.2669 59.132 90.0861L62.5681 88.0383C61.7991 86.7481 60.806 85.6699 59.5914 84.829L57.3146 88.1178ZM59.132 90.0861C59.5352 90.7626 59.7929 91.6826 59.7929 92.9454H63.7929C63.7929 91.1399 63.422 89.4712 62.5681 88.0383L59.132 90.0861ZM59.7929 92.9454C59.7929 94.3432 59.433 95.5601 58.7251 96.6503L62.08 98.8285C63.2259 97.0636 63.7929 95.0845 63.7929 92.9454H59.7929ZM58.7194 96.6592C58.0343 97.7267 57.0008 98.6307 55.5161 99.3373L57.235 102.949C59.2873 101.972 60.9385 100.607 62.0858 98.8197L58.7194 96.6592ZM55.5119 99.3393C54.0901 100.02 52.2664 100.406 49.9676 100.406V104.406C52.6971 104.406 55.1454 103.95 57.2393 102.947L55.5119 99.3393ZM49.9676 100.406C47.8343 100.406 46.0919 100.061 44.6861 99.4411L43.0721 103.101C45.0968 103.994 47.4133 104.406 49.9676 104.406V100.406ZM44.6904 99.4429C43.27 98.8126 42.2216 97.9687 41.4718 96.9336L38.2325 99.2803C39.4429 100.951 41.0792 102.217 43.0679 103.099L44.6904 99.4429ZM41.4779 96.9421C40.7403 95.9127 40.3048 94.7016 40.2011 93.2503L36.2113 93.5353C36.3633 95.6636 37.0251 97.5953 38.2264 99.2719L41.4779 96.9421ZM38.2062 95.3928H42.2971V91.3928H38.2062V95.3928ZM40.3045 93.5646C40.4427 95.168 40.9999 96.6175 42.0531 97.7946L45.034 95.1274C44.6383 94.6851 44.3646 94.0893 44.2897 93.221L40.3045 93.5646ZM42.0717 97.8151C43.0483 98.8766 44.2614 99.6445 45.6594 100.137L46.9888 96.3645C46.1496 96.0687 45.509 95.6434 45.0154 95.1069L42.0717 97.8151ZM45.6809 100.145C47.0351 100.604 48.4687 100.826 49.9676 100.826V96.8261C48.867 96.8261 47.8716 96.6642 46.9673 96.357L45.6809 100.145ZM49.9676 100.826C51.6971 100.826 53.3174 100.546 54.7966 99.9434L53.2884 96.2386C52.3599 96.6165 51.2636 96.8261 49.9676 96.8261V100.826ZM54.8106 99.9376C56.2782 99.3272 57.5241 98.4458 58.4683 97.2583L55.3375 94.7688C54.8755 95.3498 54.2144 95.8534 53.2744 96.2443L54.8106 99.9376ZM58.4756 97.2492C59.4696 95.984 59.9576 94.4994 59.9576 92.8815H55.9576C55.9576 93.6499 55.7425 94.2533 55.3303 94.7779L58.4756 97.2492ZM59.9576 92.8815C59.9576 91.4027 59.5337 90.014 58.5403 88.8986L55.5532 91.5589C55.7743 91.8071 55.9576 92.1869 55.9576 92.8815H59.9576ZM58.5403 88.8986C57.7064 87.9623 56.6512 87.2505 55.44 86.7296L53.8595 90.4041C54.6298 90.7354 55.1726 91.1316 55.5532 91.5589L58.5403 88.8986ZM55.44 86.7296C54.3581 86.2642 53.2014 85.8624 51.973 85.5212L50.9024 89.3753C51.9752 89.6732 52.9598 90.0171 53.8595 90.4041L55.44 86.7296ZM51.9872 85.5252L47.9602 84.3746L46.8613 88.2207L50.8883 89.3713L51.9872 85.5252ZM47.9634 84.3755C45.613 83.6998 43.8913 82.7738 42.6878 81.6735L39.9888 84.6256C41.7682 86.2526 44.0949 87.4254 46.8581 88.2198L47.9634 84.3755ZM42.6878 81.6735C41.6512 80.7257 41.1011 79.4972 41.1011 77.7962H37.1011C37.1011 80.5058 38.0424 82.8461 39.9888 84.6256L42.6878 81.6735ZM41.1011 77.7962C41.1011 76.3474 41.4846 75.1696 42.2053 74.1778L38.9692 71.8266C37.7083 73.5621 37.1011 75.5803 37.1011 77.7962H41.1011ZM42.2036 74.18C42.983 73.1105 44.0401 72.2568 45.434 71.6304L43.7945 67.9819C41.8218 68.8683 40.1943 70.1453 38.9709 71.8244L42.2036 74.18ZM45.4392 71.6281C46.8438 70.9921 48.4486 70.6556 50.2872 70.6556V66.6556C47.9496 66.6556 45.7725 67.0862 43.7892 67.9843L45.4392 71.6281ZM50.2872 70.6556C52.1555 70.6556 53.7372 70.9898 55.0748 71.6065L56.7495 67.9739C54.8059 67.0778 52.6376 66.6556 50.2872 66.6556V70.6556ZM55.0846 71.6109C56.4515 72.2323 57.4681 73.051 58.2019 74.0457L61.4208 71.6711C60.237 70.0664 58.6541 68.8396 56.7398 67.9695L55.0846 71.6109ZM58.2082 74.0542C58.9282 75.0195 59.3061 76.0985 59.3464 77.3493L63.3444 77.2204C63.2782 75.1687 62.6333 73.2966 61.4145 71.6626L58.2082 74.0542ZM61.3454 75.2849H57.5102V79.2849H61.3454V75.2849ZM72.8166 100.899L71.798 102.621L71.8101 102.628L72.8166 100.899ZM69.2945 97.1478L67.5157 98.062L67.5178 98.0661L69.2945 97.1478ZM69.2945 85.934L71.0713 86.8523L71.0733 86.8483L69.2945 85.934ZM72.8166 82.1826L73.8275 83.9083L73.8306 83.9065L72.8166 82.1826ZM83.6795 82.1826L82.661 83.9039L82.673 83.9109L83.6795 82.1826ZM87.215 85.934L85.4362 86.8483L85.4383 86.8523L87.215 85.934ZM87.215 97.1478L88.9917 98.0661L88.9938 98.062L87.215 97.1478ZM83.6795 100.899L84.6904 102.625L84.6935 102.623L83.6795 100.899ZM80.6702 96.9724L81.9612 98.5L81.9674 98.4947L81.9736 98.4894L80.6702 96.9724ZM82.1141 94.7323L80.2278 94.0676L80.225 94.0756L80.2222 94.0837L82.1141 94.7323ZM82.1141 88.282L80.2222 88.9307L80.225 88.9387L80.2278 88.9467L82.1141 88.282ZM80.6702 86.042L79.3669 87.559L80.6702 86.042ZM75.8528 86.042L74.5703 84.5072L74.5599 84.516L75.8528 86.042ZM74.3819 88.282L72.4956 87.6173L72.4928 87.6253L72.49 87.6334L74.3819 88.282ZM74.3819 94.7323L72.49 95.381L72.4928 95.389L72.4956 95.397L74.3819 94.7323ZM75.8528 96.9724L74.5599 98.4983L74.5713 98.508L74.5828 98.5174L75.8528 96.9724ZM78.2548 100.235C76.4467 100.235 74.9947 99.8533 73.823 99.1709L71.8101 102.628C73.6971 103.726 75.8706 104.235 78.2548 104.235V100.235ZM73.835 99.178C72.6447 98.4736 71.7302 97.5045 71.0713 96.2295L67.5178 98.0661C68.5141 99.9938 69.9477 101.526 71.7981 102.62L73.835 99.178ZM71.0733 96.2335C70.4142 94.9511 70.0531 93.4076 70.0531 91.5477H66.0531C66.0531 93.9339 66.5196 96.1239 67.5157 98.062L71.0733 96.2335ZM70.0531 91.5477C70.0531 89.6664 70.4155 88.1211 71.0713 86.8523L67.5178 85.0157C66.5183 86.9496 66.0531 89.1467 66.0531 91.5477H70.0531ZM71.0733 86.8483C71.7324 85.566 72.6444 84.6014 73.8275 83.9083L71.8056 80.4569C69.948 81.5451 68.512 83.0813 67.5157 85.0198L71.0733 86.8483ZM73.8306 83.9065C75.0009 83.218 76.4501 82.8332 78.2548 82.8332V78.8332C75.8672 78.8332 73.6909 79.3479 71.8025 80.4587L73.8306 83.9065ZM78.2548 82.8332C80.0598 82.8332 81.5022 83.2182 82.661 83.9038L84.698 80.4613C82.816 79.3478 80.6419 78.8332 78.2548 78.8332V82.8332ZM82.673 83.9109C83.8646 84.6048 84.7788 85.5692 85.4362 86.8483L88.9938 85.0198C87.9959 83.0782 86.5531 81.5416 84.686 80.4543L82.673 83.9109ZM85.4383 86.8523C86.094 88.1211 86.4565 89.6664 86.4565 91.5477H90.4565C90.4565 89.1467 89.9912 86.9496 88.9917 85.0157L85.4383 86.8523ZM86.4565 91.5477C86.4565 93.4076 86.0953 94.9511 85.4362 96.2335L88.9938 98.062C89.99 96.1239 90.4565 93.9339 90.4565 91.5477H86.4565ZM85.4383 96.2295C84.7809 97.5014 83.8643 98.4702 82.6654 99.1753L84.6935 102.623C86.5534 101.529 87.9938 99.9968 88.9917 98.0661L85.4383 96.2295ZM82.6686 99.1735C81.5084 99.8531 80.0632 100.235 78.2548 100.235V104.235C80.6385 104.235 82.8098 103.727 84.6904 102.625L82.6686 99.1735ZM78.2818 99.782C79.6376 99.782 80.9111 99.3873 81.9612 98.5L79.3793 95.4448C79.1519 95.637 78.8331 95.782 78.2818 95.782V99.782ZM81.9736 98.4894C82.9286 97.6688 83.5883 96.5993 84.006 95.381L80.2222 94.0837C79.9922 94.7545 79.6893 95.1784 79.3669 95.4554L81.9736 98.4894ZM84.0005 95.397C84.4221 94.2004 84.6134 92.8943 84.6134 91.5072H80.6134C80.6134 92.531 80.4719 93.375 80.2278 94.0676L84.0005 95.397ZM84.6134 91.5072C84.6134 90.12 84.4221 88.8139 84.0005 87.6173L80.2278 88.9467C80.4719 89.6393 80.6134 90.4833 80.6134 91.5072H84.6134ZM84.006 87.6334C83.5883 86.4151 82.9286 85.3455 81.9736 84.525L79.3669 87.559C79.6893 87.836 79.9922 88.2598 80.2222 88.9307L84.006 87.6334ZM81.9736 84.525C80.924 83.6232 79.6461 83.2188 78.2818 83.2188V87.2188C78.8246 87.2188 79.139 87.3632 79.3669 87.559L81.9736 84.525ZM78.2818 83.2188C76.9126 83.2188 75.6318 83.6203 74.5703 84.5073L77.1352 87.5767C77.3872 87.3661 77.7258 87.2188 78.2818 87.2188V83.2188ZM74.5599 84.516C73.5964 85.3324 72.925 86.3987 72.4956 87.6173L76.2682 88.9467C76.5045 88.2762 76.8137 87.8491 77.1456 87.5679L74.5599 84.516ZM72.49 87.6334C72.0815 88.8249 71.8961 90.1253 71.8961 91.5072H75.8961C75.8961 90.4781 76.0346 89.6284 76.2738 88.9307L72.49 87.6334ZM71.8961 91.5072C71.8961 92.8891 72.0815 94.1895 72.49 95.381L76.2738 94.0837C76.0346 93.386 75.8961 92.5362 75.8961 91.5072H71.8961ZM72.4956 95.397C72.925 96.6157 73.5964 97.682 74.5599 98.4983L77.1456 95.4464C76.8137 95.1652 76.5045 94.7382 76.2682 94.0676L72.4956 95.397ZM74.5828 98.5174C75.6446 99.3901 76.9209 99.782 78.2818 99.782V95.782C77.7175 95.782 77.3744 95.6342 77.1227 95.4273L74.5828 98.5174ZM96.4694 101.533L95.6454 103.356L95.652 103.359L95.6586 103.362L96.4694 101.533ZM94.0134 99.4688L92.3343 100.555L92.3405 100.565L92.3468 100.574L94.0134 99.4688ZM93.757 93.14L91.9974 92.1894L91.9974 92.1894L93.757 93.14ZM95.4843 91.2508L94.3893 89.5772L94.3893 89.5772L95.4843 91.2508ZM97.9673 90.1712L97.4647 88.2354L97.4601 88.2366L97.9673 90.1712ZM100.909 89.6584L101.101 91.6492L101.109 91.6484L101.117 91.6476L100.909 89.6584ZM103.824 89.3076L104.113 91.2865L104.125 91.2848L104.137 91.2829L103.824 89.3076ZM105.43 88.7948L104.31 87.1376L104.31 87.1376L105.43 88.7948ZM105.119 85.7316L103.797 87.232L103.803 87.2375L103.809 87.243L105.119 85.7316ZM100.383 85.7181L101.568 87.3294L101.575 87.3238L101.583 87.3181L100.383 85.7181ZM99.1683 87.4184L99.0064 89.4118L100.635 89.5441L101.089 87.9745L99.1683 87.4184ZM93.8515 86.9866L91.8959 86.5675L91.4185 88.7956L93.6896 88.98L93.8515 86.9866ZM95.4438 83.7209L96.9582 85.0274L96.9644 85.0201L95.4438 83.7209ZM98.507 81.5888L99.2429 83.4486L99.2498 83.4458L98.507 81.5888ZM106.185 81.238L105.689 83.1753L105.693 83.1763L106.185 81.238ZM109.006 82.493L107.867 84.1374L107.876 84.1431L109.006 82.493ZM110.962 84.679L109.199 85.623L109.203 85.6305L110.962 84.679ZM111.677 101.83V103.83H113.677V101.83H111.677ZM106.226 101.83H104.226V103.83H106.226V101.83ZM106.226 98.956H108.226V96.956H106.226V98.956ZM106.064 98.956V96.956H104.843L104.285 98.0419L106.064 98.956ZM104.728 100.67L106.041 102.178L106.048 102.172L106.055 102.166L104.728 100.67ZM102.717 101.817L103.369 103.708L103.379 103.704L103.389 103.701L102.717 101.817ZM103.891 97.755L104.805 99.5339L104.815 99.5289L104.825 99.5238L103.891 97.755ZM105.416 96.3786L103.732 95.2998L103.732 95.2998L105.416 96.3786ZM105.969 92.2224H107.969V88.537L104.879 90.5455L105.969 92.2224ZM105.227 92.5462L105.792 94.465L105.809 94.4598L105.827 94.4542L105.227 92.5462ZM104.188 92.8026L104.554 94.7689L104.576 94.7648L104.598 94.7602L104.188 92.8026ZM103.028 93.005L103.304 94.9858L103.327 94.9827L103.349 94.9791L103.028 93.005ZM101.975 93.1535L101.692 91.1736L101.685 91.1746L101.975 93.1535ZM100.207 93.6258L100.995 95.4641L100.995 95.4641L100.207 93.6258ZM99.0333 94.5029L100.614 95.7281L100.621 95.7186L100.629 95.7091L99.0333 94.5029ZM99.4651 97.6471L98.2857 99.2623L98.3002 99.2729L98.3148 99.2831L99.4651 97.6471ZM100.005 100.222C98.9152 100.222 98.02 100.033 97.2802 99.7052L95.6586 103.362C96.9879 103.951 98.4498 104.222 100.005 104.222V100.222ZM97.2934 99.7111C96.5867 99.3915 96.0661 98.9451 95.6801 98.3632L92.3468 100.574C93.1663 101.81 94.283 102.74 95.6454 103.356L97.2934 99.7111ZM95.6926 98.3823C95.3552 97.861 95.1228 97.1198 95.1228 96.0413H91.1228C91.1228 97.6976 91.4841 99.2415 92.3343 100.555L95.6926 98.3823ZM95.1228 96.0413C95.1228 95.1267 95.2913 94.5078 95.5167 94.0906L91.9974 92.1894C91.3771 93.3375 91.1228 94.6528 91.1228 96.0413H95.1228ZM95.5167 94.0906C95.785 93.5938 96.135 93.2151 96.5794 92.9244L94.3893 89.5772C93.3762 90.2401 92.5747 91.1208 91.9974 92.1894L95.5167 94.0906ZM96.5794 92.9244C97.1103 92.5769 97.7358 92.2995 98.4744 92.1059L97.4601 88.2366C96.3455 88.5288 95.3157 88.971 94.3893 89.5772L96.5794 92.9244ZM98.4698 92.1071C99.2971 91.8923 100.174 91.7387 101.101 91.6492L100.717 87.6677C99.5934 87.7761 98.5086 87.9644 97.4647 88.2354L98.4698 92.1071ZM101.117 91.6476C102.335 91.5203 103.337 91.4001 104.113 91.2865L103.534 87.3287C102.835 87.431 101.894 87.5447 100.701 87.6693L101.117 91.6476ZM104.137 91.2829C104.957 91.1529 105.846 90.9272 106.549 90.452L104.31 87.1376C104.35 87.1105 104.323 87.1377 104.17 87.1865C104.024 87.233 103.81 87.2848 103.511 87.3323L104.137 91.2829ZM106.549 90.452C107.493 89.8145 107.929 88.8252 107.929 87.7962H103.929C103.929 87.7631 103.936 87.6401 104.015 87.4821C104.098 87.3167 104.215 87.2019 104.31 87.1376L106.549 90.452ZM107.929 87.7962V87.7153H103.929V87.7962H107.929ZM107.929 87.7153C107.929 86.4056 107.494 85.1428 106.429 84.2202L103.809 87.243C103.842 87.2711 103.859 87.2945 103.875 87.3342C103.895 87.3826 103.929 87.4972 103.929 87.7153H107.929ZM106.442 84.2312C105.426 83.3357 104.132 83.0299 102.852 83.0299V87.0299C103.534 87.0299 103.751 87.1918 103.797 87.232L106.442 84.2312ZM102.852 83.0299C101.536 83.0299 100.245 83.3217 99.1827 84.1181L101.583 87.3181C101.744 87.1969 102.099 87.0299 102.852 87.0299V83.0299ZM99.198 84.1068C98.2566 84.799 97.576 85.7261 97.2471 86.8623L101.089 87.9745C101.156 87.7432 101.285 87.5368 101.568 87.3294L99.198 84.1068ZM99.3302 85.425L94.0134 84.9931L93.6896 88.98L99.0064 89.4118L99.3302 85.425ZM95.8071 87.4056C96.0112 86.453 96.3995 85.6749 96.9581 85.0274L93.9295 82.4145C92.9048 83.6022 92.2315 85.0012 91.8959 86.5675L95.8071 87.4056ZM96.9644 85.0201C97.5229 84.3664 98.2638 83.836 99.2429 83.4486L97.7712 79.7291C96.2493 80.3313 94.9481 81.2222 93.9232 82.4218L96.9644 85.0201ZM99.2498 83.4458C100.227 83.0548 101.424 82.8332 102.879 82.8332V78.8332C101.024 78.8332 99.3057 79.1153 97.7643 79.7319L99.2498 83.4458ZM102.879 82.8332C103.873 82.8332 104.808 82.9495 105.689 83.1753L106.682 79.3007C105.458 78.9868 104.188 78.8332 102.879 78.8332V82.8332ZM105.693 83.1763C106.546 83.3934 107.263 83.7192 107.867 84.1373L110.144 80.8486C109.111 80.1332 107.948 79.6224 106.678 79.2997L105.693 83.1763ZM107.876 84.1431C108.437 84.5273 108.873 85.0131 109.199 85.623L112.726 83.7351C112.098 82.5638 111.23 81.5921 110.136 80.8428L107.876 84.1431ZM109.203 85.6305C109.49 86.1601 109.677 86.8746 109.677 87.8502H113.677C113.677 86.3609 113.389 84.9613 112.722 83.7276L109.203 85.6305ZM109.677 87.8502V101.83H113.677V87.8502H109.677ZM111.677 99.8303H106.226V103.83H111.677V99.8303ZM108.226 101.83V98.956H104.226V101.83H108.226ZM106.226 96.956H106.064V100.956H106.226V96.956ZM104.285 98.0419C104.068 98.464 103.778 98.8392 103.401 99.1737L106.055 102.166C106.794 101.511 107.394 100.743 107.843 99.8702L104.285 98.0419ZM103.414 99.1616C103.067 99.4641 102.622 99.7277 102.046 99.9329L103.389 103.701C104.378 103.348 105.273 102.847 106.041 102.178L103.414 99.1616ZM102.065 99.9261C101.536 100.109 100.859 100.222 100.005 100.222V104.222C101.201 104.222 102.334 104.065 103.369 103.708L102.065 99.9261ZM101.651 100.254C102.763 100.254 103.832 100.034 104.805 99.5339L102.977 95.9762C102.655 96.1419 102.23 96.2543 101.651 96.2543V100.254ZM104.825 99.5238C105.756 99.0325 106.532 98.3448 107.1 97.4575L103.732 95.2998C103.563 95.5639 103.322 95.7938 102.958 95.9863L104.825 99.5238ZM107.1 97.4575C107.689 96.5383 107.969 95.5068 107.969 94.4219H103.969C103.969 94.7945 103.881 95.0675 103.732 95.2998L107.1 97.4575ZM107.969 94.4219V92.2224H103.969V94.4219H107.969ZM104.879 90.5455C104.902 90.531 104.896 90.5373 104.849 90.558C104.803 90.578 104.731 90.6056 104.628 90.6382L105.827 94.4542C106.233 94.3267 106.669 94.1531 107.059 93.8993L104.879 90.5455ZM104.663 90.6275C104.418 90.6994 104.125 90.7725 103.778 90.845L104.598 94.7602C105.025 94.6708 105.424 94.573 105.792 94.465L104.663 90.6275ZM103.822 90.8364C103.45 90.9056 103.078 90.9705 102.706 91.031L103.349 94.9791C103.751 94.9137 104.152 94.8436 104.554 94.7689L103.822 90.8364ZM102.751 91.0242C102.363 91.0784 102.01 91.1282 101.692 91.1736L102.258 95.1334C102.57 95.0888 102.919 95.0396 103.304 94.9858L102.751 91.0242ZM101.685 91.1746C100.879 91.2929 100.116 91.4892 99.4195 91.7875L100.995 95.4641C101.307 95.3305 101.722 95.212 102.265 95.1323L101.685 91.1746ZM99.4195 91.7875C98.6556 92.1149 97.9624 92.6032 97.438 93.2967L100.629 95.7091C100.662 95.665 100.751 95.5685 100.995 95.4641L99.4195 91.7875ZM97.4525 93.2778C96.8539 94.0502 96.615 94.9543 96.615 95.8523H100.615C100.615 95.7545 100.628 95.7098 100.63 95.7023C100.631 95.6985 100.631 95.701 100.627 95.7077C100.624 95.7145 100.619 95.7217 100.614 95.7281L97.4525 93.2778ZM96.615 95.8523C96.615 97.1885 97.1382 98.4245 98.2857 99.2623L100.645 96.0318C100.625 96.0176 100.621 96.0115 100.625 96.0158C100.629 96.0205 100.633 96.0271 100.635 96.0319C100.641 96.0448 100.615 96.001 100.615 95.8523H96.615ZM98.3148 99.2831C99.304 99.9787 100.463 100.254 101.651 100.254V96.2543C101.077 96.2543 100.778 96.1252 100.615 96.011L98.3148 99.2831ZM118.037 101.83H116.037V103.83H118.037V101.83ZM118.037 81.103V79.103H116.037V81.103H118.037ZM123.611 81.103H125.611V79.103H123.611V81.103ZM123.611 84.7195H121.611V86.7195H123.611V84.7195ZM123.826 84.7195V86.7195H125.323L125.745 85.2831L123.826 84.7195ZM125.729 81.8048L126.916 83.4145L126.927 83.4067L125.729 81.8048ZM129.737 80.8602L129.952 78.8717L129.952 78.8717L129.737 80.8602ZM130.614 81.0086H132.614V79.447L131.099 79.0683L130.614 81.0086ZM130.614 86.1094L130.039 88.0251L132.614 88.7975V86.1094H130.614ZM125.918 86.3523L126.879 88.1063L126.887 88.1018L125.918 86.3523ZM124.353 87.8637L122.636 86.8382L122.63 86.8471L122.625 86.856L124.353 87.8637ZM123.786 101.83V103.83H125.786V101.83H123.786ZM120.037 101.83V81.103H116.037V101.83H120.037ZM118.037 83.103H123.611V79.103H118.037V83.103ZM121.611 81.103V84.7195H125.611V81.103H121.611ZM123.611 86.7195H123.826V82.7195H123.611V86.7195ZM125.745 85.2831C126.027 84.3248 126.447 83.7606 126.916 83.4145L124.542 80.1951C123.23 81.1624 122.382 82.5413 121.907 84.1559L125.745 85.2831ZM126.927 83.4067C127.456 83.0112 128.057 82.8062 128.806 82.8062V78.8062C127.234 78.8062 125.784 79.2668 124.532 80.2028L126.927 83.4067ZM128.806 82.8062C129.011 82.8062 129.249 82.8191 129.522 82.8486L129.952 78.8717C129.559 78.8292 129.176 78.8062 128.806 78.8062V82.8062ZM129.522 82.8486C129.788 82.8774 129.987 82.9134 130.129 82.9489L131.099 79.0683C130.737 78.9778 130.351 78.9149 129.952 78.8717L129.522 82.8486ZM128.614 81.0086V86.1094H132.614V81.0086H128.614ZM131.189 84.1938C130.77 84.0681 130.276 83.9794 129.756 83.9108L129.232 87.8763C129.666 87.9336 129.918 87.9888 130.039 88.0251L131.189 84.1938ZM129.756 83.9108C129.21 83.8387 128.685 83.7991 128.185 83.7991V87.7991C128.477 87.7991 128.824 87.8225 129.232 87.8763L129.756 83.9108ZM128.185 83.7991C127.039 83.7991 125.943 84.052 124.949 84.6029L126.887 88.1018C127.225 87.915 127.64 87.7991 128.185 87.7991V83.7991ZM124.957 84.5984C123.985 85.1307 123.204 85.8871 122.636 86.8382L126.07 88.8892C126.275 88.5449 126.537 88.2936 126.879 88.1063L124.957 84.5984ZM122.625 86.856C122.047 87.8471 121.786 88.9502 121.786 90.1038H125.786C125.786 89.5661 125.903 89.1757 126.08 88.8714L122.625 86.856ZM121.786 90.1038V101.83H125.786V90.1038H121.786ZM123.786 99.8303H118.037V103.83H123.786V99.8303Z" fill="white"/>
<path d="M47.5132 56.6129C47.5132 57.4134 46.9028 57.9868 46.2409 57.9868C45.5791 57.9868 44.9687 57.4134 44.9687 56.6129C44.9687 55.8124 45.5791 55.239 46.2409 55.239C46.9028 55.239 47.5132 55.8124 47.5132 56.6129Z" fill="white" stroke="white" stroke-width="2"/>
</svg>
